<svg width="93" height="30" viewBox="0 0 93 30" fill="none" xmlns="http://www.w3.org/2000/svg">
<g clip-path="url(#clip0_38_244)">
<path d="M11.5579 0.00341797H12.3753C15.2128 0.0651037 18.0041 1.20629 20.0089 3.2265C19.2687 3.98215 18.513 4.70695 17.7882 5.4626C16.6624 4.44479 15.3054 3.6583 13.8249 3.38071C11.6351 2.91807 9.27557 3.33445 7.44042 4.58358C5.43563 5.8944 4.07855 8.11509 3.78554 10.49C3.46169 12.834 4.12481 15.3015 5.65153 17.1212C7.11657 18.8947 9.35268 20.005 11.6659 20.0821C13.8249 20.2055 16.0764 19.5424 17.6494 18.0311C18.8831 16.967 19.4537 15.3477 19.6388 13.7747C17.0788 13.7747 14.5189 13.7902 11.9589 13.7747V10.5979H22.7385C23.2937 14.0061 22.4917 17.846 19.9009 20.2826C18.1737 22.0098 15.7834 23.0276 13.3468 23.2281C10.9874 23.4594 8.55076 23.0122 6.45345 21.871C3.93975 20.5293 1.93497 18.2624 0.947994 15.5945C0.0227078 13.1425 0.00728637 10.3666 0.870887 7.89919C1.65738 5.64766 3.16868 3.6583 5.11178 2.27037C6.97778 0.897861 9.24473 0.142211 11.5579 0.00341797Z" fill="#B6B1DE"/>
<path d="M73.398 0.804443H76.6982V22.8263C75.6033 22.8263 74.4929 22.8417 73.398 22.8108C73.4134 15.4856 73.398 8.14505 73.398 0.804443Z" fill="#B6B1DE"/>
<path d="M30.0792 8.43807C32.1148 8.05253 34.3201 8.48433 36.001 9.70263C37.5278 10.7821 38.5918 12.4785 38.9157 14.329C39.3321 16.4726 38.8077 18.8167 37.4198 20.513C35.9239 22.4099 33.4719 23.4277 31.0816 23.2735C28.8918 23.1501 26.7636 22.0552 25.4682 20.2663C24.0032 18.2924 23.6485 15.5782 24.4504 13.265C25.2523 10.7821 27.5192 8.88529 30.0792 8.43807ZM30.5419 11.3681C29.7091 11.584 28.938 12.0621 28.3828 12.7406C26.887 14.5295 26.9795 17.4442 28.6296 19.1097C29.5703 20.0658 30.9891 20.513 32.2999 20.2509C33.5182 20.035 34.5823 19.2176 35.1683 18.1381C36.1861 16.303 35.8931 13.7739 34.3355 12.3397C33.3331 11.4144 31.8681 11.0289 30.5419 11.3681Z" fill="#B6B1DE"/>
<path d="M46.4259 8.43823C48.7545 7.99101 51.2991 8.63871 53.0417 10.2734C55.8792 12.8179 56.1877 17.5831 53.7665 20.5132C52.3015 22.3638 49.9266 23.3816 47.5825 23.2736C45.3464 23.212 43.1411 22.1016 41.8149 20.2665C40.319 18.2463 39.9952 15.4704 40.8434 13.1109C41.6915 10.7052 43.9122 8.87003 46.4259 8.43823ZM46.8886 11.3683C46.0558 11.5842 45.2847 12.0623 44.7296 12.7254C43.2491 14.4834 43.3108 17.3518 44.8992 19.0328C45.8399 20.0351 47.3049 20.5286 48.662 20.251C49.8649 20.0197 50.9444 19.2178 51.5304 18.1383C52.5328 16.2877 52.2398 13.7586 50.6668 12.3244C49.6644 11.3991 48.1994 11.029 46.8886 11.3683Z" fill="#B6B1DE"/>
<path d="M60.2898 9.33266C62.0632 8.22232 64.4227 7.91389 66.335 8.87002C66.9364 9.13218 67.4299 9.57941 67.908 10.0266C67.9234 9.61025 67.908 9.17845 67.9234 8.74665C68.9566 8.76207 69.9899 8.74665 71.0385 8.76207V22.3638C71.0231 24.4148 70.4988 26.5893 69.0183 28.0851C67.399 29.7352 64.9162 30.2441 62.6801 29.9049C60.2898 29.5502 58.2079 27.8075 57.2826 25.6023C58.2079 25.1551 59.1794 24.8004 60.1356 24.384C60.6753 25.6485 61.7702 26.728 63.1427 26.9748C64.5152 27.2215 66.1036 26.8823 66.9981 25.7411C67.9542 24.569 67.9542 22.9652 67.908 21.531C67.1986 22.225 66.3812 22.8418 65.3943 23.0732C63.2507 23.6746 60.8912 22.9344 59.2411 21.4848C57.5756 20.0351 56.5886 17.799 56.6812 15.5783C56.7274 13.0647 58.1462 10.6435 60.2898 9.33266ZM63.482 11.3066C62.5413 11.4608 61.6623 11.9851 61.0608 12.71C59.6112 14.4372 59.6112 17.1976 61.0763 18.894C61.909 19.8963 63.2507 20.4515 64.5461 20.3127C65.7644 20.1894 66.8901 19.4183 67.4916 18.3542C68.5094 16.5499 68.3398 14.0979 66.9673 12.5249C66.1191 11.5533 64.762 11.0753 63.482 11.3066Z" fill="#B6B1DE"/>
<path d="M80.6615 10.119C82.5121 8.39182 85.3651 7.8058 87.74 8.71567C89.9915 9.56385 91.4257 11.7074 92.1505 13.9127C88.8041 15.3006 85.473 16.6731 82.1266 18.0611C82.5892 18.9401 83.2986 19.742 84.2547 20.0659C85.5964 20.5439 87.2002 20.3743 88.326 19.4798C88.7732 19.1406 89.1279 18.6933 89.4672 18.2615C90.3154 18.8321 91.1635 19.3873 92.0117 19.9579C90.8089 21.7622 88.7886 23.0268 86.6142 23.2273C84.2085 23.5203 81.6485 22.595 80.0909 20.7136C77.531 17.7526 77.7777 12.7869 80.6615 10.119ZM82.3116 12.972C81.7873 13.7276 81.5714 14.6529 81.5868 15.5628C83.8229 14.6375 86.059 13.7122 88.2952 12.7715C87.925 11.9079 87.0306 11.3836 86.1207 11.2448C84.6557 10.9826 83.129 11.7691 82.3116 12.972Z" fill="#B6B1DE"/>
</g>
<defs>
<clipPath id="clip0_38_244">
<rect width="91.9118" height="30" fill="white" transform="translate(0.238708)"/>
</clipPath>
</defs>
</svg>
