<svg width="32" height="32" viewBox="0 0 32 32" stroke="currentColor" fill="none" xmlns="http://www.w3.org/2000/svg">
<path d="M29.3334 16H2.66669" stroke-width="2" stroke-linecap="round" stroke-linejoin="round"/>
<path d="M7.26669 6.8135L2.66669 16.0002V24.0002C2.66669 24.7074 2.94764 25.3857 3.44774 25.8858C3.94783 26.3859 4.62611 26.6668 5.33335 26.6668H26.6667C27.3739 26.6668 28.0522 26.3859 28.5523 25.8858C29.0524 25.3857 29.3334 24.7074 29.3334 24.0002V16.0002L24.7334 6.8135C24.5126 6.36921 24.1723 5.99532 23.7506 5.73387C23.329 5.47241 22.8428 5.33376 22.3467 5.3335H9.65335C9.15724 5.33376 8.67104 5.47241 8.24941 5.73387C7.82779 5.99532 7.48746 6.36921 7.26669 6.8135V6.8135Z" stroke-width="2" stroke-linecap="round" stroke-linejoin="round"/>
<path d="M13.3333 21.3335H13.3466" stroke-width="2" stroke-linecap="round" stroke-linejoin="round"/>
<path d="M8 21.3335H8.01333" stroke-width="2" stroke-linecap="round" stroke-linejoin="round"/>
</svg>
