<svg width="32" height="32" viewBox="0 0 32 32" stroke="currentColor" fill="none" xmlns="http://www.w3.org/2000/svg">
<path d="M16 25.3332C21.1546 25.3332 25.3333 21.1545 25.3333 15.9998C25.3333 10.8452 21.1546 6.6665 16 6.6665C10.8453 6.6665 6.66666 10.8452 6.66666 15.9998C6.66666 21.1545 10.8453 25.3332 16 25.3332Z" stroke-width="2" stroke-linecap="round" stroke-linejoin="round"/>
<path d="M16 12V16L18 18" stroke-width="2" stroke-linecap="round" stroke-linejoin="round"/>
<path d="M22.0133 23.1335L21.5467 28.2402C21.4866 28.905 21.1793 29.5232 20.6856 29.9725C20.1919 30.4218 19.5476 30.6696 18.88 30.6669H13.1067C12.4391 30.6696 11.7948 30.4218 11.3011 29.9725C10.8073 29.5232 10.5001 28.905 10.44 28.2402L9.97333 23.1335M9.98666 8.86685L10.4533 3.76018C10.5132 3.09762 10.8186 2.48136 11.3095 2.03239C11.8004 1.58341 12.4414 1.33414 13.1067 1.33352H18.9067C19.5742 1.33081 20.2185 1.57858 20.7123 2.02788C21.206 2.47718 21.5133 3.09533 21.5733 3.76018L22.04 8.86685" stroke-width="2" stroke-linecap="round" stroke-linejoin="round"/>
</svg>
