<svg width="1374" height="984" viewBox="0 0 1374 984" fill="none" xmlns="http://www.w3.org/2000/svg">
<path fill-rule="evenodd" clip-rule="evenodd" d="M1346.67 151.456C1396.33 247.735 1368.46 373.174 1281.9 498.593C1195.41 623.904 1050.72 748.544 868.257 842.657C685.795 936.77 500.353 982.412 348.11 980.237C195.735 978.061 77.3687 928.049 27.7086 831.77C-21.9516 735.491 5.91795 610.052 92.4799 484.633C178.967 359.323 323.662 234.682 506.124 140.569C688.586 46.4561 874.028 0.814255 1026.27 2.989C1178.65 5.16557 1297.01 55.1771 1346.67 151.456ZM1349.09 150.207C1449.78 345.421 1235.06 656.525 869.506 845.078C503.947 1033.63 125.978 1028.23 25.2877 833.019C-75.4023 637.806 139.316 326.701 504.875 138.148C870.434 -50.405 1248.4 -45.0059 1349.09 150.207ZM1215.81 464.333C1287.43 360.565 1310.39 256.92 1269.4 177.446C1228.41 97.9728 1130.65 56.5965 1004.58 54.7956C878.637 52.9966 725.199 90.7548 574.208 168.636C423.216 246.516 303.499 349.65 231.954 453.31C160.335 557.078 137.374 660.723 178.366 740.197C219.358 819.67 317.12 861.047 443.192 862.848C569.131 864.647 722.568 826.888 873.56 749.008C1024.55 671.127 1144.27 567.993 1215.81 464.333ZM874.809 751.428C1177.43 595.34 1355.18 337.8 1271.82 176.198C1188.47 14.5953 875.577 10.1258 572.959 166.215C270.34 322.304 92.5913 579.843 175.945 741.446C259.298 903.048 572.191 907.517 874.809 751.428ZM1209.42 194.187C1243.28 259.83 1224.36 345.54 1165.03 431.491C1105.79 517.334 1006.62 602.768 881.531 667.29C756.438 731.813 629.338 763.083 525.046 761.593C420.621 760.102 339.814 725.831 305.956 660.188C272.097 594.545 291.019 508.835 350.341 422.884C409.588 337.041 508.75 251.607 633.844 187.085C758.937 122.562 886.036 91.2921 990.329 92.7819C1094.75 94.2735 1175.56 128.544 1209.42 194.187ZM1211.84 192.938C1280.93 326.88 1133.6 540.339 882.78 669.711C631.958 799.083 372.621 795.379 303.535 661.437C234.448 527.495 381.774 314.036 632.595 184.664C883.416 55.2917 1142.75 58.9962 1211.84 192.938ZM1159.06 222.717C1185.44 273.867 1170.75 340.781 1124.32 408.06C1077.96 475.231 1000.34 542.117 902.383 592.64C804.43 643.164 704.932 667.635 623.325 666.469C541.585 665.302 478.547 638.479 452.164 587.329C425.781 536.179 440.47 469.265 486.905 401.986C533.265 334.815 610.886 267.929 708.839 217.406C806.792 166.882 906.29 142.411 987.897 143.577C1069.64 144.744 1132.68 171.567 1159.06 222.717ZM1161.48 221.468C1215.61 326.424 1100.17 493.687 903.632 595.061C707.091 696.436 503.879 693.533 449.743 588.578C395.608 483.622 511.05 316.359 707.59 214.985C904.131 113.61 1107.34 116.513 1161.48 221.468Z" fill="url(#paint0_linear_40_33)"/>
<defs>
<linearGradient id="paint0_linear_40_33" x1="1154.51" y1="-33.6171" x2="401.391" y2="210.047" gradientUnits="userSpaceOnUse">
<stop stop-color="#F098DD"/>
<stop offset="1" stop-color="#171528"/>
</linearGradient>
</defs>
</svg>
